# xmcd CD database file
#
# Track frame offsets:
#	150
#	20357
#	39885
#	62800
#	82665
#	100127
#	118800
#	137925
#	154765
#	177645
#	197412
#	205697
#
# Disc length: 2931 seconds
#
# Revision: 5
# Processed by: cddbd v1.5.2PL0 Copyright (c) Steve Scherf et al.
# Submitted via: CDex 1.51
#
DISCID=980b710c
DTITLE=Peter Bruntnell - Normal For Bridgwater
DYEAR=1999
DGENRE=Blues
TTITLE0=Handful Of Stars
TTITLE1=You Won't Find Me
TTITLE2=N.F.B.
TTITLE3=Forgiven
TTITLE4=By The Time My Head Gets To Phoenix
TTITLE5=Played Out
TTITLE6=Cosmea
TTITLE7=Lay Down This Curse
TTITLE8=Shot From A Spring
TTITLE9=Jurassic Parking Lot
TTITLE10=How You Are
TTITLE11=Outlaw (May The Sun Always Shine)
EXTD=YEAR: 1999
EXTT0=
EXTT1=
EXTT2=
EXTT3=
EXTT4=
EXTT5=
EXTT6=
EXTT7=
EXTT8=
EXTT9=
EXTT10=
EXTT11=
PLAYORDER=
